Coordinates
version=1
nRows=14
nColumns=40
inDegrees=yes

Units are S.I. units (second, meters, Newtons, ...)
Angles are in degrees.

endheader
time	pelvis_tilt	pelvis_list	pelvis_rotation	pelvis_tx	pelvis_ty	pelvis_tz	hip_flexion_r	hip_adduction_r	hip_rotation_r	knee_angle_r	knee_angle_r_beta	ankle_angle_r	subtalar_angle_r	mtp_angle_r	hip_flexion_l	hip_adduction_l	hip_rotation_l	knee_angle_l	knee_angle_l_beta	ankle_angle_l	subtalar_angle_l	mtp_angle_l	lumbar_extension	lumbar_bending	lumbar_rotation	arm_flex_r	arm_add_r	arm_rot_r	elbow_flex_r	pro_sup_r	wrist_flex_r	wrist_dev_r	arm_flex_l	arm_add_l	arm_rot_l	elbow_flex_l	pro_sup_l	wrist_flex_l	wrist_dev_l
      1.79000000	     -1.50857782	     -0.54014213	      5.29067324	      0.51107969	      0.89954501	     -1.04302972	     27.34042027	     -3.75376816	    -17.38184029	    -35.50124932	     -0.61961369	      4.18270736	    -14.85842921	     20.37062256	      4.88927613	      0.80019263	     13.14835148	    -23.70351368	     -0.41370436	     10.63411605	     -4.16187021	     -1.05606405	     -5.62898960	     -2.69771041	     -9.66238132	     -4.81365105	     -6.90862604	     -9.49466708	     21.86121336	     89.95437384	      0.00000000	      0.00000000	     11.24423558	     15.12848650	     17.74283008	     42.56742331	     89.95437384	      0.00000000	      0.00000000
      1.80000000	     -1.85603754	     -0.32623175	      5.37473384	      0.51921932	      0.89852525	     -1.04323994	     27.90281180	     -3.96567435	    -17.59306161	    -32.91478172	     -0.57447131	      4.13513756	    -13.98628076	     20.07764580	      4.61230631	      0.60818956	     13.33094167	    -23.61674256	     -0.41218992	     10.67499480	     -4.47399303	     -1.22365181	     -5.31620344	     -2.90457942	     -9.80329257	     -5.06224445	     -6.85100608	     -9.66821421	     21.75757586	     89.95437384	      0.00000000	      0.00000000	     11.49488633	     15.36693513	     17.62775981	     43.46762122	     89.95437384	      0.00000000	      0.00000000
      1.81000000	     -1.77173940	     -0.34251436	      5.55434552	      0.52784910	      0.89810459	     -1.04343402	     27.78010443	     -3.94728617	    -18.21365081	    -30.13127656	     -0.52588998	      4.40865580	    -12.77901119	     19.39595270	      3.82804238	      0.82103275	     13.78020418	    -23.48620794	     -0.40991166	     10.57690605	     -5.42241030	     -1.73876068	     -5.44920653	     -2.79638769	     -9.99030232	     -5.24056719	     -6.80187877	     -9.99810074	     21.57377311	     89.95437384	      0.00000000	      0.00000000	     11.76514834	     15.54319206	     17.50491081	     44.33937680	     89.95437384	      0.00000000	      0.00000000
      1.82000000	     -1.96269219	     -0.25342653	      5.70935596	      0.53643145	      0.89721699	     -1.04352653	     28.02305889	     -4.08426070	    -18.79292223	    -27.63533546	     -0.48232759	      4.60295551	    -11.43035412	     18.30485485	      3.37726930	      0.89531206	     14.18306168	    -23.42582518	     -0.40885778	     10.39477592	     -6.27471571	     -2.53432011	     -5.26407843	     -2.85001043	    -10.19315102	     -5.43964951	     -6.73480822	    -10.34512712	     21.44037627	     89.95437384	      0.00000000	      0.00000000	     11.95260578	     15.74352664	     17.38185117	     45.17319194	     89.95437384	      0.00000000	      0.00000000
      1.83000000	     -2.37321280	      0.03868690	      5.83375980	      0.54479111	      0.89595983	     -1.04356299	     28.63796543	     -4.39582184	    -19.08467562	    -25.52098499	     -0.44542522	      4.74505892	    -10.69985338	     18.08452258	      3.19762804	      0.62445345	     14.24677352	    -23.41556940	     -0.40867878	     10.46557956	     -6.33583487	     -2.61226319	     -4.84510766	     -3.15094256	    -10.40554794	     -5.72210567	     -6.67908560	    -10.41170674	     21.43093138	     89.95437384	      0.00000000	      0.00000000	     12.11123280	     15.99378996	     17.26141816	     45.89138926	     89.95437384	      0.00000000	      0.00000000
      1.84000000	     -2.35260814	     -0.06483523	      6.08703138	      0.55384368	      0.89528993	     -1.04349073	     28.59488855	     -4.43272339	    -20.32806021	    -23.40390589	     -0.40847522	      5.06743406	     -8.36305976	     16.34214434	      2.57478300	      0.98505775	     14.56003790	    -23.47168101	     -0.40965811	     10.28110217	     -7.31794537	     -3.52406904	     -4.84265712	     -2.96936973	    -10.67496236	     -5.85526564	     -6.61063387	    -10.94464171	     21.20872091	     89.95437384	      0.00000000	      0.00000000	     12.22546825	     16.15588324	     17.17055612	     46.67921799	     89.95437384	      0.00000000	      0.00000000
      1.85000000	     -2.72407079	      0.16877332	      6.21982909	      0.56250937	      0.89399315	     -1.04334278	     29.10362078	     -4.62518645	    -20.58257228	    -21.59689709	     -0.37693696	      5.25091692	     -7.52796448	     16.09177803	      2.36899243	      0.81166363	     14.58884502	    -23.52790114	     -0.41063934	     10.43872520	     -7.38853492	     -3.61485399	     -4.43024123	     -3.20178509	    -10.88108584	     -6.10413552	     -6.55096753	    -11.01761955	     21.18870040	     89.95437384	      0.00000000	      0.00000000	     12.31758074	     16.36456723	     17.06144767	     47.30372659	     89.95437384	      0.00000000	      0.00000000
      1.86000000	     -2.99301021	      0.33323360	      6.26026131	      0.57131815	      0.89273971	     -1.04316727	     29.68721740	     -4.79411509	    -21.12763280	    -20.45546459	     -0.35701521	      5.49127875	     -7.15536433	     15.91755905	      2.03410400	      0.71958477	     14.69620330	    -23.58458530	     -0.41162867	     10.53988662	     -7.39997567	     -3.65241561	     -4.09074429	     -3.32916215	    -10.91617336	     -6.30812293	     -6.58097327	    -11.07538813	     21.06445493	     89.95437384	      0.00000000	      0.00000000	     12.50423630	     16.46390336	     17.03246619	     47.72716409	     89.95437384	      0.00000000	      0.00000000
      1.87000000	     -3.25745795	      0.20387150	      6.69968559	      0.58031709	      0.89158487	     -1.04301079	     29.82315115	     -4.63096136	    -21.30960678	    -18.76322637	     -0.32748008	      5.64129146	     -5.40329988	     15.42706964	      1.89393932	      1.02350449	     14.29026845	    -23.92003243	     -0.41748332	     10.62259844	     -7.71140608	     -3.79530097	     -3.74940730	     -3.16100185	    -11.51147797	     -6.44851191	     -6.50179541	    -11.43005111	     21.04900625	     89.95437384	      0.00000000	      0.00000000	     12.36694208	     16.68151349	     17.09541545	     48.47683387	     89.95437384	      0.00000000	      0.00000000
      1.88000000	     -3.02023107	     -0.06630532	      7.05653740	      0.59018997	      0.89096654	     -1.04288621	     29.60532887	     -4.64971178	    -23.33212282	    -17.94855740	     -0.31326142	      6.12247224	     -2.02755503	     13.69429338	      1.13581742	      1.73024978	     14.70400934	    -24.23918167	     -0.42305353	     10.41380851	     -8.94615297	     -4.41241062	     -3.85106379	     -2.73857843	    -11.87433594	     -6.53440882	     -6.45461054	    -12.15471114	     20.85147563	     89.95437384	      0.00000000	      0.00000000	     12.40832728	     16.67180682	     17.25881026	     48.92939395	     89.95437384	      0.00000000	      0.00000000
      1.89000000	     -3.26979581	      0.08748113	      7.19270208	      0.59963858	      0.88976878	     -1.04261447	     29.98737033	     -4.73662423	    -23.17802748	    -17.38618706	     -0.30344621	      6.15497078	     -1.62994030	     13.36382981	      0.80144651	      1.67786313	     14.55992840	    -24.36384418	     -0.42522930	     10.38426736	     -8.90808565	     -4.45347517	     -3.46207708	     -2.86515062	    -12.08927841	     -6.73175973	     -6.47351434	    -12.18326262	     20.85568587	     89.95437384	      0.00000000	      0.00000000	     12.37009066	     16.74100346	     17.29173743	     49.24492914	     89.95437384	      0.00000000	      0.00000000
      1.90000000	     -3.45046175	      0.21059325	      7.31154823	      0.60933115	      0.88858516	     -1.04231885	     30.26710125	     -4.77788625	    -23.06443436	    -17.02484906	     -0.29713967	      6.16589439	     -1.36405684	     13.08118975	      0.39631639	      1.67321893	     14.39975971	    -24.56663270	     -0.42876863	     10.37734156	     -8.83165751	     -4.47232994	     -3.14254777	     -2.92594599	    -12.26597450	     -6.91313198	     -6.51717873	    -12.28254866	     20.82840979	     89.95437384	      0.00000000	      0.00000000	     12.26764984	     16.80035125	     17.35601965	     49.59836206	     89.95437384	      0.00000000	      0.00000000
      1.91000000	     -3.57693720	      0.34360030	      7.38255423	      0.61917255	      0.88740829	     -1.04179557	     30.57047766	     -4.81578876	    -22.77098706	    -17.17138156	     -0.29969715	      6.05892551	     -1.27961878	     12.80728783	      0.01749126	      1.68192367	     14.11754572	    -24.93033289	     -0.43511639	     10.16348253	     -8.60584991	     -4.41469141	     -2.86559298	     -2.99730096	    -12.34424831	     -7.20303296	     -6.53856611	    -12.28600729	     20.97684963	     89.95437384	      0.00000000	      0.00000000	     12.21461270	     16.80981681	     17.37052839	     49.82749582	     89.95437384	      0.00000000	      0.00000000
      1.92000000	     -3.16417179	      0.21042447	      7.76767708	      0.62995410	      0.88718451	     -1.04162788	     29.76099306	     -4.61228960	    -23.41075571	    -16.72303251	     -0.29187198	      5.30939686	     -1.25778648	      5.43264498	     -1.09839228	      2.08095619	     13.66608499	    -24.89626081	     -0.43452172	      9.65962304	     -8.72461826	     -8.43741837	     -3.10339329	     -2.69647057	    -12.95361385	     -7.04380170	     -6.48519980	    -13.06302054	     20.58246745	     89.95437384	      0.00000000	      0.00000000	     11.77466762	     16.80261320	     17.78396913	     50.40279026	     89.95437384	      0.00000000	      0.00000000
